/* XPM */
static char *iris[] = {
/* columns rows colors chars-per-pixel */
"32 32 93 2",
"   c #010101",
".  c #0A0406",
"X  c #0D0509",
"o  c #100007",
"O  c #14030B",
"+  c #1C040E",
"@  c #14080E",
"#  c #1E0510",
"$  c #1C0912",
"%  c #20010E",
"&  c #230312",
"*  c #2C0215",
"=  c #280917",
"-  c #2E0519",
";  c #290818",
":  c #330216",
">  c #3A0116",
",  c #34031A",
"<  c #3C021C",
"1  c #34091D",
"2  c #3A0A1F",
"3  c #3B0421",
"4  c #3B0C22",
"5  c #381C29",
"6  c #4D011F",
"7  c #430322",
"8  c #4B0324",
"9  c #430B25",
"0  c #440629",
"q  c #4D062C",
"w  c #440F2A",
"e  c #4C0929",
"r  c #540027",
"t  c #570229",
"y  c #5D022D",
"u  c #4A102C",
"i  c #4A0C30",
"p  c #530530",
"a  c #5E0435",
"s  c #550934",
"d  c #560939",
"f  c #5C093A",
"g  c #541835",
"h  c #561838",
"j  c #61032D",
"k  c #6F0335",
"l  c #64093D",
"z  c #720233",
"x  c #780439",
"c  c #740D3F",
"v  c #65103D",
"b  c #4C2535",
"n  c #4E263B",
"m  c #7E0340",
"M  c #6B1049",
"N  c #691F48",
"B  c #592342",
"V  c #553745",
"C  c #6E234D",
"Z  c #81043D",
"A  c #830442",
"S  c #8E0045",
"D  c #810F44",
"F  c #81044A",
"G  c #8F044B",
"H  c #920449",
"J  c #9B034D",
"K  c #8A0858",
"L  c #900350",
"P  c #9C0550",
"I  c #94075C",
"U  c #B5055B",
"Y  c #9C215D",
"T  c #85365D",
"R  c #9B186A",
"E  c #AA046A",
"W  c #BB0560",
"Q  c #B62A73",
"!  c #964A6C",
"~  c #8B5E79",
"^  c #876678",
"/  c #866A78",
"(  c #956481",
")  c #997B8E",
"_  c #A0718A",
"`  c #B2799B",
"'  c #C1629D",
"]  c #AD9EA6",
"[  c #BB9BAE",
"{  c #B8A5B0",
"}  c #C68DB1",
"|  c #C888B0",
" . c None",
/* pixels */
" . . . . . . . . . . . . . . . . . . . . . . . . . . . . . . . .",
" .e A c  .> <  . . . . . . . . . . . . . . . . . . . . . . . . .",
" .O 6 z  .* #  . . . . . . . . . . . . . . . . . . . . .Y  . . .",
" . .$ * t h #  . . . . . . . . . . . . . . . . . .} ' J =  . . .",
" . . .  X e e  . . .[ ( C  . . . . . . . . . .` K K S 6  . . . .",
" . .T v u % < 1 4 1 % & < a p  . . . . . . .! L A x k 1  . . . .",
" .- : $ .   & O         X + < 7  . . . . . .Z P H P A 1  . . . .",
" . .   . . .% -  . . . . .O * < -  . . . . .z J U W y @  . . . .",
" . . . . . .+ :  . . . . . .- < %  . . . . .7 k A y 3  . . . . .",
" . . . . . .$ >  . . . . . .2 < &  . . . . .9 + & -    . . . . .",
" . . . . . .@ 6 ,  . . . ./ < * @  . . . . .g      . . . . . . .",
" . . . . . . .% t w  . .{ p 8 ;  . . . . .D #  . . . . . . . . .",
" . . . . . . .+ : j l f e , , s M f  . . .j  . . . . . . . . . .",
" . . . . . . .  + & * * o X = 3 q e ;  . .8  . . . . .| | Q  . .",
" . . . . . . . .  . X X . X & < 7 3 $  . .1  . . ._ R E S 8  . .",
" . . . . . . . . . . . . . .+ & & & ,  . .1  . . .t x Z : .  . .",
" . . . . . . . . . . . . . .. O X . + 9  .4  . .= t y 8 &  . . .",
" . . . . . . . . . . . . . . . . . .  @ 4 9  . .5 & & + @  . . .",
" . . . . . . . . . . . . . . . . . . . .O +  . .4   .    . . . .",
" . . . . . . . . . . .~  . . . .)  . . . .@ =  .-  . . . . . . .",
" . . . . . . . .] i d f d B n # + @ & ,  . .3 N  . . . . . . . .",
" . . . . . . .^ 0 3 - ; , & .         . * i , 0  . . . . . . . .",
" . . . . . . .i p - & & & O .  . . . . .  , h ,  . . . . . . . .",
" . . . . . .b 0 3 - & # & o  . . . . . . .. : ,  . . . . . . . .",
" . . . . . .w 7 : & # # X X  . . . . . . . .+ *  . . . . . . . .",
" . . . . .V * + O X X X @  . . . . . . . . .+ :  . . . . . . . .",
" . . . .$ O O X X X X    . . . . . . . . . .& :  . . . . . . . .",
" . . . . .   . . . . . . . . . . . . . . . .& :  . . . . . . . .",
" . . . . . . . . . . . . . . . . . . . . . .& &  . . . . . . . .",
" . . . . . . . . . . . . . . . . . . . . . .$ +  . . . . . . . .",
" . . . . . . . . . . . . . . . . . . . . . . . . . . . . . . . .",
" . . . . . . . . . . . . . . . . . . . . . . . . . . . . . . . ."
};
